<?xml version="1.0" encoding="UTF-8"?>
<svg xmlns="http://www.w3.org/2000/svg" xmlns:xlink="http://www.w3.org/1999/xlink" width="576pt" height="360pt" viewBox="0 0 576 360" version="1.1">
<defs>
<clipPath id="clip1">
  <path d="M 12.703125 9.960938 L 279.039063 9.960938 L 279.039063 348.296875 L 12.703125 348.296875 Z M 12.703125 9.960938 "/>
</clipPath>
<clipPath id="clip2">
  <path d="M 300.703125 45.960938 L 567.039063 45.960938 L 567.039063 312.296875 L 300.703125 312.296875 Z M 300.703125 45.960938 "/>
</clipPath>
</defs>
<g id="surface74">
<rect x="0" y="0" width="576" height="360" style="fill:rgb(100%,100%,100%);fill-opacity:1;stroke:none;"/>
<g clip-path="url(#clip1)" clip-rule="nonzero">
<path style="fill:none;stroke-width:0.106698;stroke-linecap:butt;stroke-linejoin:round;stroke:rgb(89.803922%,89.803922%,89.803922%);stroke-opacity:1;stroke-miterlimit:10;" d="M 12.703125 299.410156 L 278.039063 299.410156 "/>
<path style="fill:none;stroke-width:0.106698;stroke-linecap:butt;stroke-linejoin:round;stroke:rgb(89.803922%,89.803922%,89.803922%);stroke-opacity:1;stroke-miterlimit:10;" d="M 12.703125 234.300781 L 278.039063 234.300781 "/>
<path style="fill:none;stroke-width:0.106698;stroke-linecap:butt;stroke-linejoin:round;stroke:rgb(89.803922%,89.803922%,89.803922%);stroke-opacity:1;stroke-miterlimit:10;" d="M 12.703125 169.1875 L 278.039063 169.1875 "/>
<path style="fill:none;stroke-width:0.106698;stroke-linecap:butt;stroke-linejoin:round;stroke:rgb(89.803922%,89.803922%,89.803922%);stroke-opacity:1;stroke-miterlimit:10;" d="M 12.703125 104.078125 L 278.039063 104.078125 "/>
<path style="fill:none;stroke-width:0.106698;stroke-linecap:butt;stroke-linejoin:round;stroke:rgb(89.803922%,89.803922%,89.803922%);stroke-opacity:1;stroke-miterlimit:10;" d="M 12.703125 38.96875 L 278.039063 38.96875 "/>
<path style=" stroke:none;fill-rule:nonzero;fill:rgb(0%,0%,1.568627%);fill-opacity:1;" d="M 15.320313 331.964844 L 31.03125 331.964844 L 31.03125 152.261719 L 15.320313 152.261719 Z M 15.320313 331.964844 "/>
<path style=" stroke:none;fill-rule:nonzero;fill:rgb(5.098039%,3.137255%,16.470588%);fill-opacity:1;" d="M 32.777344 331.964844 L 48.488281 331.964844 L 48.488281 244.066406 L 32.777344 244.066406 Z M 32.777344 331.964844 "/>
<path style=" stroke:none;fill-rule:nonzero;fill:rgb(15.686275%,4.313725%,32.941176%);fill-opacity:1;" d="M 50.234375 331.964844 L 65.945313 331.964844 L 65.945313 197.839844 L 50.234375 197.839844 Z M 50.234375 331.964844 "/>
<path style=" stroke:none;fill-rule:nonzero;fill:rgb(28.235294%,4.313725%,41.568627%);fill-opacity:1;" d="M 67.691406 331.964844 L 83.402344 331.964844 L 83.402344 148.355469 L 67.691406 148.355469 Z M 67.691406 331.964844 "/>
<path style=" stroke:none;fill-rule:nonzero;fill:rgb(39.607843%,8.235294%,43.137255%);fill-opacity:1;" d="M 85.144531 331.964844 L 100.855469 331.964844 L 100.855469 129.472656 L 85.144531 129.472656 Z M 85.144531 331.964844 "/>
<path style=" stroke:none;fill-rule:nonzero;fill:rgb(50.980392%,12.54902%,42.352941%);fill-opacity:1;" d="M 102.601563 331.964844 L 118.3125 331.964844 L 118.3125 189.375 L 102.601563 189.375 Z M 102.601563 331.964844 "/>
<path style=" stroke:none;fill-rule:nonzero;fill:rgb(62.352941%,16.470588%,38.823529%);fill-opacity:1;" d="M 120.058594 331.964844 L 135.769531 331.964844 L 135.769531 25.296875 L 120.058594 25.296875 Z M 120.058594 331.964844 "/>
<path style=" stroke:none;fill-rule:nonzero;fill:rgb(73.333333%,21.568627%,32.941176%);fill-opacity:1;" d="M 137.515625 331.964844 L 153.226563 331.964844 L 153.226563 251.878906 L 137.515625 251.878906 Z M 137.515625 331.964844 "/>
<path style=" stroke:none;fill-rule:nonzero;fill:rgb(83.137255%,28.235294%,25.882353%);fill-opacity:1;" d="M 154.972656 331.964844 L 170.683594 331.964844 L 170.683594 241.460938 L 154.972656 241.460938 Z M 154.972656 331.964844 "/>
<path style=" stroke:none;fill-rule:nonzero;fill:rgb(90.980392%,37.647059%,17.647059%);fill-opacity:1;" d="M 172.425781 331.964844 L 188.136719 331.964844 L 188.136719 205 L 172.425781 205 Z M 172.425781 331.964844 "/>
<path style=" stroke:none;fill-rule:nonzero;fill:rgb(96.078431%,49.019608%,8.235294%);fill-opacity:1;" d="M 189.882813 331.964844 L 205.59375 331.964844 L 205.59375 219.324219 L 189.882813 219.324219 Z M 189.882813 331.964844 "/>
<path style=" stroke:none;fill-rule:nonzero;fill:rgb(98.431373%,61.960784%,2.745098%);fill-opacity:1;" d="M 207.339844 331.964844 L 223.050781 331.964844 L 223.050781 226.488281 L 207.339844 226.488281 Z M 207.339844 331.964844 "/>
<path style=" stroke:none;fill-rule:nonzero;fill:rgb(98.039216%,75.686275%,15.294118%);fill-opacity:1;" d="M 224.796875 331.964844 L 240.507813 331.964844 L 240.507813 85.199219 L 224.796875 85.199219 Z M 224.796875 331.964844 "/>
<path style=" stroke:none;fill-rule:nonzero;fill:rgb(95.294118%,89.803922%,36.078431%);fill-opacity:1;" d="M 242.253906 331.964844 L 257.964844 331.964844 L 257.964844 173.746094 L 242.253906 173.746094 Z M 242.253906 331.964844 "/>
<path style=" stroke:none;fill-rule:nonzero;fill:rgb(98.823529%,100%,64.313725%);fill-opacity:1;" d="M 259.707031 331.964844 L 275.417969 331.964844 L 275.417969 127.519531 L 259.707031 127.519531 Z M 259.707031 331.964844 "/>
</g>
<g clip-path="url(#clip2)" clip-rule="nonzero">
<path style=" stroke:none;fill-rule:nonzero;fill:rgb(98.823529%,100%,64.313725%);fill-opacity:1;" d="M 433.371094 178.628906 L 435.261719 175.5 L 440.945313 166.101563 L 442.835938 162.972656 L 448.519531 153.574219 L 450.410156 150.445313 L 456.09375 141.046875 L 457.984375 137.914063 L 459.878906 134.785156 L 463.667969 128.519531 L 465.558594 125.386719 L 467.453125 122.257813 L 471.242188 115.992188 L 473.132813 112.859375 L 475.027344 109.730469 L 478.816406 103.464844 L 480.707031 100.332031 L 482.601563 97.203125 L 486.390625 90.9375 L 488.28125 87.804688 L 485.164063 85.992188 L 481.988281 84.285156 L 478.753906 82.6875 L 475.464844 81.203125 L 472.132813 79.828125 L 468.75 78.566406 L 465.332031 77.421875 L 461.875 76.394531 L 458.382813 75.484375 L 454.863281 74.695313 L 451.320313 74.023438 L 447.753906 73.476563 L 444.171875 73.046875 L 440.578125 72.742188 L 436.976563 72.558594 L 433.371094 72.496094 Z M 433.371094 178.628906 "/>
<path style=" stroke:none;fill-rule:nonzero;fill:rgb(95.294118%,89.803922%,36.078431%);fill-opacity:1;" d="M 433.371094 178.628906 L 436.378906 176.546875 L 448.410156 168.203125 L 451.417969 166.121094 L 460.441406 159.863281 L 463.449219 157.78125 L 472.472656 151.523438 L 475.480469 149.441406 L 484.503906 143.183594 L 487.511719 141.101563 L 496.535156 134.84375 L 499.542969 132.761719 L 511.574219 124.417969 L 514.582031 122.335938 L 520.597656 118.164063 L 518.421875 115.144531 L 516.144531 112.199219 L 513.761719 109.339844 L 511.285156 106.5625 L 508.710938 103.875 L 506.042969 101.28125 L 503.285156 98.777344 L 500.441406 96.375 L 497.515625 94.074219 L 494.511719 91.878906 L 491.433594 89.789063 L 488.28125 87.804688 L 486.390625 90.9375 L 482.601563 97.203125 L 480.707031 100.332031 L 478.816406 103.464844 L 475.027344 109.730469 L 473.132813 112.859375 L 471.242188 115.992188 L 467.453125 122.257813 L 465.558594 125.386719 L 463.667969 128.519531 L 459.878906 134.785156 L 457.984375 137.914063 L 456.09375 141.046875 L 450.410156 150.445313 L 448.519531 153.574219 L 442.835938 162.972656 L 440.945313 166.101563 L 435.261719 175.5 Z M 433.371094 178.628906 "/>
<path style=" stroke:none;fill-rule:nonzero;fill:rgb(98.039216%,75.686275%,15.294118%);fill-opacity:1;" d="M 433.371094 178.628906 L 437.023438 178.8125 L 447.992188 179.363281 L 451.644531 179.546875 L 455.300781 179.734375 L 458.957031 179.917969 L 462.609375 180.101563 L 473.578125 180.652344 L 477.230469 180.835938 L 488.199219 181.386719 L 491.851563 181.570313 L 499.164063 181.9375 L 502.816406 182.121094 L 513.785156 182.671875 L 517.4375 182.855469 L 528.40625 183.40625 L 532.058594 183.589844 L 539.371094 183.957031 L 539.492188 180.292969 L 539.484375 176.628906 L 539.351563 172.964844 L 539.09375 169.304688 L 538.707031 165.660156 L 538.199219 162.03125 L 537.5625 158.417969 L 536.800781 154.832031 L 535.917969 151.273438 L 534.910156 147.75 L 533.785156 144.261719 L 532.539063 140.8125 L 531.171875 137.410156 L 529.691406 134.054688 L 528.09375 130.757813 L 526.382813 127.511719 L 524.5625 124.332031 L 522.632813 121.214844 L 520.597656 118.164063 L 514.582031 122.335938 L 511.574219 124.417969 L 499.542969 132.761719 L 496.535156 134.84375 L 487.511719 141.101563 L 484.503906 143.183594 L 475.480469 149.441406 L 472.472656 151.523438 L 463.449219 157.78125 L 460.441406 159.863281 L 451.417969 166.121094 L 448.410156 168.203125 L 436.378906 176.546875 Z M 433.371094 178.628906 "/>
<path style=" stroke:none;fill-rule:nonzero;fill:rgb(98.431373%,61.960784%,2.745098%);fill-opacity:1;" d="M 433.371094 178.628906 L 436.832031 179.820313 L 447.214844 183.382813 L 450.675781 184.574219 L 457.597656 186.949219 L 461.0625 188.140625 L 467.984375 190.515625 L 471.445313 191.707031 L 481.828125 195.269531 L 485.289063 196.460938 L 488.753906 197.648438 L 492.214844 198.835938 L 495.675781 200.027344 L 506.058594 203.589844 L 509.519531 204.78125 L 516.441406 207.15625 L 519.90625 208.347656 L 526.828125 210.722656 L 530.289063 211.914063 L 533.75 213.101563 L 534.898438 209.558594 L 535.917969 205.980469 L 536.816406 202.367188 L 537.582031 198.726563 L 538.222656 195.0625 L 538.734375 191.375 L 539.117188 187.671875 L 539.371094 183.957031 L 532.058594 183.589844 L 528.40625 183.40625 L 517.4375 182.855469 L 513.785156 182.671875 L 502.816406 182.121094 L 499.164063 181.9375 L 491.851563 181.570313 L 488.199219 181.386719 L 477.230469 180.835938 L 473.578125 180.652344 L 462.609375 180.101563 L 458.957031 179.917969 L 455.300781 179.734375 L 451.644531 179.546875 L 447.992188 179.363281 L 437.023438 178.8125 Z M 433.371094 178.628906 "/>
<path style=" stroke:none;fill-rule:nonzero;fill:rgb(96.078431%,49.019608%,8.235294%);fill-opacity:1;" d="M 433.371094 178.628906 L 436.328125 180.789063 L 439.28125 182.945313 L 445.195313 187.257813 L 448.152344 189.417969 L 451.109375 191.574219 L 454.0625 193.730469 L 457.019531 195.890625 L 465.890625 202.359375 L 468.847656 204.519531 L 471.800781 206.675781 L 477.714844 210.988281 L 480.671875 213.148438 L 486.585938 217.460938 L 489.539063 219.621094 L 498.410156 226.089844 L 501.367188 228.25 L 504.324219 230.40625 L 507.277344 232.5625 L 510.234375 234.71875 L 513.191406 236.878906 L 519.105469 241.191406 L 521.386719 237.9375 L 523.546875 234.601563 L 525.578125 231.1875 L 527.480469 227.695313 L 529.253906 224.136719 L 530.890625 220.515625 L 532.390625 216.835938 L 533.75 213.101563 L 530.289063 211.914063 L 526.828125 210.722656 L 519.90625 208.347656 L 516.441406 207.15625 L 509.519531 204.78125 L 506.058594 203.589844 L 495.675781 200.027344 L 492.214844 198.835938 L 488.753906 197.648438 L 485.289063 196.460938 L 481.828125 195.269531 L 471.445313 191.707031 L 467.984375 190.515625 L 461.0625 188.140625 L 457.597656 186.949219 L 450.675781 184.574219 L 447.214844 183.382813 L 436.832031 179.820313 Z M 433.371094 178.628906 "/>
<path style=" stroke:none;fill-rule:nonzero;fill:rgb(90.980392%,37.647059%,17.647059%);fill-opacity:1;" d="M 433.371094 178.628906 L 443.742188 193.707031 L 445.816406 196.71875 L 449.964844 202.75 L 452.042969 205.765625 L 456.191406 211.796875 L 458.265625 214.808594 L 468.636719 229.886719 L 470.710938 232.898438 L 472.785156 235.914063 L 474.863281 238.929688 L 481.085938 247.976563 L 483.160156 250.988281 L 493.53125 266.066406 L 496.769531 263.746094 L 499.917969 261.308594 L 502.972656 258.753906 L 505.929688 256.085938 L 508.785156 253.308594 L 511.535156 250.425781 L 514.171875 247.445313 L 516.695313 244.363281 L 519.105469 241.191406 L 513.191406 236.878906 L 510.234375 234.71875 L 507.277344 232.5625 L 504.324219 230.40625 L 501.367188 228.25 L 498.410156 226.089844 L 489.539063 219.621094 L 486.585938 217.460938 L 480.671875 213.148438 L 477.714844 210.988281 L 471.800781 206.675781 L 468.847656 204.519531 L 465.890625 202.359375 L 457.019531 195.890625 L 454.0625 193.730469 L 451.109375 191.574219 L 448.152344 189.417969 L 445.195313 187.257813 L 439.28125 182.945313 L 436.328125 180.789063 Z M 433.371094 178.628906 "/>
<path style=" stroke:none;fill-rule:nonzero;fill:rgb(83.137255%,28.235294%,25.882353%);fill-opacity:1;" d="M 433.371094 178.628906 L 434.664063 182.054688 L 439.851563 195.742188 L 441.144531 199.167969 L 445.035156 209.433594 L 446.328125 212.855469 L 447.625 216.28125 L 450.21875 223.125 L 451.511719 226.546875 L 452.808594 229.96875 L 454.105469 233.394531 L 455.402344 236.816406 L 456.695313 240.238281 L 459.289063 247.082031 L 460.585938 250.507813 L 461.882813 253.929688 L 463.175781 257.351563 L 465.769531 264.195313 L 467.066406 267.621094 L 468.359375 271.042969 L 470.953125 277.886719 L 474.34375 276.535156 L 477.683594 275.070313 L 480.976563 273.488281 L 484.207031 271.796875 L 487.382813 269.992188 L 490.492188 268.082031 L 493.53125 266.066406 L 483.160156 250.988281 L 481.085938 247.976563 L 474.863281 238.929688 L 472.785156 235.914063 L 470.710938 232.898438 L 468.636719 229.886719 L 458.265625 214.808594 L 456.191406 211.796875 L 452.042969 205.765625 L 449.964844 202.75 L 445.816406 196.71875 L 443.742188 193.707031 Z M 433.371094 178.628906 "/>
<path style=" stroke:none;fill-rule:nonzero;fill:rgb(73.333333%,21.568627%,32.941176%);fill-opacity:1;" d="M 433.371094 178.628906 L 433.914063 182.25 L 434.457031 185.867188 L 435 189.488281 L 435.542969 193.105469 L 436.628906 200.347656 L 437.171875 203.964844 L 437.714844 207.585938 L 438.257813 211.203125 L 438.800781 214.824219 L 439.34375 218.441406 L 439.886719 222.0625 L 440.429688 225.679688 L 440.972656 229.300781 L 441.515625 232.917969 L 442.058594 236.539063 L 442.601563 240.15625 L 443.144531 243.777344 L 443.6875 247.394531 L 444.773438 254.636719 L 445.316406 258.253906 L 445.859375 261.875 L 446.402344 265.492188 L 446.945313 269.113281 L 447.488281 272.730469 L 448.03125 276.351563 L 448.574219 279.96875 L 449.117188 283.589844 L 452.835938 282.964844 L 456.527344 282.207031 L 460.1875 281.320313 L 463.816406 280.304688 L 467.40625 279.160156 L 470.953125 277.886719 L 468.359375 271.042969 L 467.066406 267.621094 L 465.769531 264.195313 L 463.175781 257.351563 L 461.882813 253.929688 L 460.585938 250.507813 L 459.289063 247.082031 L 456.695313 240.238281 L 455.402344 236.816406 L 454.105469 233.394531 L 452.808594 229.96875 L 451.511719 226.546875 L 450.21875 223.125 L 447.625 216.28125 L 446.328125 212.855469 L 445.035156 209.433594 L 441.144531 199.167969 L 439.851563 195.742188 L 434.664063 182.054688 Z M 433.371094 178.628906 "/>
<path style=" stroke:none;fill-rule:nonzero;fill:rgb(62.352941%,16.470588%,38.823529%);fill-opacity:1;" d="M 433.371094 178.628906 L 431.105469 181.507813 L 428.84375 184.382813 L 426.578125 187.257813 L 424.316406 190.132813 L 422.054688 193.011719 L 419.789063 195.886719 L 417.527344 198.761719 L 415.261719 201.636719 L 413 204.515625 L 410.734375 207.390625 L 406.210938 213.140625 L 403.945313 216.019531 L 401.683594 218.894531 L 399.417969 221.769531 L 397.15625 224.644531 L 394.890625 227.519531 L 392.628906 230.398438 L 390.367188 233.273438 L 388.101563 236.148438 L 385.839844 239.023438 L 383.574219 241.902344 L 381.3125 244.777344 L 379.046875 247.652344 L 376.785156 250.527344 L 374.523438 253.40625 L 372.257813 256.28125 L 369.996094 259.15625 L 367.730469 262.03125 L 370.605469 264.214844 L 373.546875 266.296875 L 376.5625 268.28125 L 379.640625 270.160156 L 382.78125 271.933594 L 385.980469 273.597656 L 389.238281 275.152344 L 392.542969 276.597656 L 395.894531 277.929688 L 399.289063 279.144531 L 402.726563 280.242188 L 406.195313 281.226563 L 409.699219 282.089844 L 413.226563 282.835938 L 416.78125 283.460938 L 420.351563 283.960938 L 423.9375 284.34375 L 427.535156 284.605469 L 431.140625 284.742188 L 434.75 284.753906 L 438.355469 284.648438 L 441.953125 284.417969 L 445.542969 284.0625 L 449.117188 283.589844 L 448.574219 279.96875 L 448.03125 276.351563 L 447.488281 272.730469 L 446.945313 269.113281 L 446.402344 265.492188 L 445.859375 261.875 L 445.316406 258.253906 L 444.773438 254.636719 L 443.6875 247.394531 L 443.144531 243.777344 L 442.601563 240.15625 L 442.058594 236.539063 L 441.515625 232.917969 L 440.972656 229.300781 L 440.429688 225.679688 L 439.886719 222.0625 L 439.34375 218.441406 L 438.800781 214.824219 L 438.257813 211.203125 L 437.714844 207.585938 L 437.171875 203.964844 L 436.628906 200.347656 L 435.542969 193.105469 L 435 189.488281 L 434.457031 185.867188 L 433.914063 182.25 Z M 433.371094 178.628906 "/>
<path style=" stroke:none;fill-rule:nonzero;fill:rgb(50.980392%,12.54902%,42.352941%);fill-opacity:1;" d="M 433.371094 178.628906 L 430.203125 180.464844 L 423.867188 184.128906 L 420.699219 185.964844 L 417.53125 187.796875 L 414.367188 189.632813 L 408.03125 193.296875 L 404.863281 195.132813 L 401.695313 196.964844 L 398.527344 198.800781 L 395.363281 200.632813 L 392.195313 202.464844 L 389.027344 204.300781 L 385.859375 206.132813 L 382.691406 207.96875 L 376.355469 211.632813 L 373.191406 213.46875 L 370.023438 215.300781 L 366.855469 217.136719 L 360.519531 220.800781 L 357.351563 222.636719 L 354.1875 224.46875 L 351.019531 226.300781 L 347.851563 228.136719 L 344.683594 229.96875 L 341.515625 231.804688 L 343.402344 234.9375 L 345.398438 238.007813 L 347.496094 241.003906 L 349.699219 243.925781 L 352 246.773438 L 354.398438 249.535156 L 356.886719 252.21875 L 359.46875 254.808594 L 362.140625 257.3125 L 364.894531 259.71875 L 367.730469 262.03125 L 369.996094 259.15625 L 372.257813 256.28125 L 374.523438 253.40625 L 376.785156 250.527344 L 379.046875 247.652344 L 381.3125 244.777344 L 383.574219 241.902344 L 385.839844 239.023438 L 388.101563 236.148438 L 390.367188 233.273438 L 392.628906 230.398438 L 394.890625 227.519531 L 397.15625 224.644531 L 399.417969 221.769531 L 401.683594 218.894531 L 403.945313 216.019531 L 406.210938 213.140625 L 410.734375 207.390625 L 413 204.515625 L 415.261719 201.636719 L 417.527344 198.761719 L 419.789063 195.886719 L 422.054688 193.011719 L 424.316406 190.132813 L 426.578125 187.257813 L 428.84375 184.382813 L 431.105469 181.507813 Z M 433.371094 178.628906 "/>
<path style=" stroke:none;fill-rule:nonzero;fill:rgb(39.607843%,8.235294%,43.137255%);fill-opacity:1;" d="M 433.371094 178.628906 L 418.730469 178.425781 L 415.074219 178.375 L 400.433594 178.171875 L 396.777344 178.125 L 378.476563 177.871094 L 374.820313 177.820313 L 360.179688 177.617188 L 356.523438 177.566406 L 338.222656 177.3125 L 334.566406 177.261719 L 327.246094 177.160156 L 327.261719 180.96875 L 327.414063 184.777344 L 327.703125 188.578125 L 328.128906 192.363281 L 328.6875 196.132813 L 329.386719 199.882813 L 330.214844 203.601563 L 331.179688 207.289063 L 332.273438 210.9375 L 333.496094 214.546875 L 334.851563 218.109375 L 336.332031 221.621094 L 337.9375 225.074219 L 339.667969 228.472656 L 341.515625 231.804688 L 344.683594 229.96875 L 347.851563 228.136719 L 351.019531 226.300781 L 354.1875 224.46875 L 357.351563 222.636719 L 360.519531 220.800781 L 366.855469 217.136719 L 370.023438 215.300781 L 373.191406 213.46875 L 376.355469 211.632813 L 382.691406 207.96875 L 385.859375 206.132813 L 389.027344 204.300781 L 392.195313 202.464844 L 395.363281 200.632813 L 398.527344 198.800781 L 401.695313 196.964844 L 404.863281 195.132813 L 408.03125 193.296875 L 414.367188 189.632813 L 417.53125 187.796875 L 420.699219 185.964844 L 423.867188 184.128906 L 430.203125 180.464844 Z M 433.371094 178.628906 "/>
<path style=" stroke:none;fill-rule:nonzero;fill:rgb(28.235294%,4.313725%,41.568627%);fill-opacity:1;" d="M 433.371094 178.628906 L 430.160156 176.867188 L 417.332031 169.820313 L 414.121094 168.058594 L 401.292969 161.011719 L 398.082031 159.25 L 385.253906 152.203125 L 382.042969 150.441406 L 369.214844 143.394531 L 366.003906 141.632813 L 353.175781 134.585938 L 349.964844 132.824219 L 340.34375 127.539063 L 338.617188 130.8125 L 337.007813 134.148438 L 335.515625 137.535156 L 334.140625 140.972656 L 332.886719 144.457031 L 331.757813 147.984375 L 330.75 151.546875 L 329.867188 155.140625 L 329.113281 158.765625 L 328.480469 162.414063 L 327.980469 166.082031 L 327.605469 169.765625 L 327.363281 173.460938 L 327.246094 177.160156 L 334.566406 177.261719 L 338.222656 177.3125 L 356.523438 177.566406 L 360.179688 177.617188 L 374.820313 177.820313 L 378.476563 177.871094 L 396.777344 178.125 L 400.433594 178.171875 L 415.074219 178.375 L 418.730469 178.425781 Z M 433.371094 178.628906 "/>
<path style=" stroke:none;fill-rule:nonzero;fill:rgb(15.686275%,4.313725%,32.941176%);fill-opacity:1;" d="M 433.371094 178.628906 L 430.980469 175.859375 L 428.589844 173.085938 L 423.808594 167.546875 L 421.417969 164.773438 L 419.027344 162.003906 L 416.636719 159.230469 L 411.855469 153.691406 L 409.464844 150.917969 L 407.074219 148.148438 L 404.683594 145.375 L 402.292969 142.605469 L 399.902344 139.832031 L 395.121094 134.292969 L 392.730469 131.519531 L 390.339844 128.75 L 387.949219 125.976563 L 383.167969 120.4375 L 380.777344 117.664063 L 378.386719 114.894531 L 375.996094 112.121094 L 373.605469 109.351563 L 371.214844 106.578125 L 366.433594 101.039063 L 364.042969 98.265625 L 361.222656 100.789063 L 358.492188 103.414063 L 355.855469 106.132813 L 353.320313 108.941406 L 350.882813 111.84375 L 348.554688 114.828125 L 346.332031 117.894531 L 344.222656 121.035156 L 342.222656 124.253906 L 340.34375 127.539063 L 349.964844 132.824219 L 353.175781 134.585938 L 366.003906 141.632813 L 369.214844 143.394531 L 382.042969 150.441406 L 385.253906 152.203125 L 398.082031 159.25 L 401.292969 161.011719 L 414.121094 168.058594 L 417.332031 169.820313 L 430.160156 176.867188 Z M 433.371094 178.628906 "/>
<path style=" stroke:none;fill-rule:nonzero;fill:rgb(5.098039%,3.137255%,16.470588%);fill-opacity:1;" d="M 433.371094 178.628906 L 431.6875 175.378906 L 430.003906 172.132813 L 414.851563 142.882813 L 413.167969 139.636719 L 398.015625 110.386719 L 396.332031 107.140625 L 384.546875 84.390625 L 380.914063 86.363281 L 377.359375 88.480469 L 373.890625 90.730469 L 370.511719 93.113281 L 367.226563 95.625 L 364.042969 98.265625 L 366.433594 101.039063 L 371.214844 106.578125 L 373.605469 109.351563 L 375.996094 112.121094 L 378.386719 114.894531 L 380.777344 117.664063 L 383.167969 120.4375 L 387.949219 125.976563 L 390.339844 128.75 L 392.730469 131.519531 L 395.121094 134.292969 L 399.902344 139.832031 L 402.292969 142.605469 L 404.683594 145.375 L 407.074219 148.148438 L 409.464844 150.917969 L 411.855469 153.691406 L 416.636719 159.230469 L 419.027344 162.003906 L 421.417969 164.773438 L 423.808594 167.546875 L 428.589844 173.085938 L 430.980469 175.859375 Z M 433.371094 178.628906 "/>
<path style=" stroke:none;fill-rule:nonzero;fill:rgb(0%,0%,1.568627%);fill-opacity:1;" d="M 433.371094 178.628906 L 433.371094 72.496094 L 429.746094 72.558594 L 426.128906 72.742188 L 422.519531 73.050781 L 418.921875 73.484375 L 415.339844 74.039063 L 411.78125 74.714844 L 408.246094 75.511719 L 404.738281 76.429688 L 401.269531 77.46875 L 397.832031 78.621094 L 394.441406 79.894531 L 391.09375 81.28125 L 387.792969 82.78125 L 384.546875 84.390625 L 396.332031 107.140625 L 398.015625 110.386719 L 413.167969 139.636719 L 414.851563 142.882813 L 430.003906 172.132813 L 431.6875 175.378906 Z M 433.371094 178.628906 "/>
</g>
</g>
</svg>
