<?xml version="1.0" encoding="UTF-8"?>
<svg xmlns="http://www.w3.org/2000/svg" xmlns:xlink="http://www.w3.org/1999/xlink" width="576pt" height="360pt" viewBox="0 0 576 360" version="1.1">
<defs>
<clipPath id="clip1">
  <path d="M 12.703125 9.960938 L 279.039063 9.960938 L 279.039063 348.296875 L 12.703125 348.296875 Z M 12.703125 9.960938 "/>
</clipPath>
<clipPath id="clip2">
  <path d="M 300.703125 45.960938 L 567.039063 45.960938 L 567.039063 312.296875 L 300.703125 312.296875 Z M 300.703125 45.960938 "/>
</clipPath>
</defs>
<g id="surface69">
<rect x="0" y="0" width="576" height="360" style="fill:rgb(100%,100%,100%);fill-opacity:1;stroke:none;"/>
<g clip-path="url(#clip1)" clip-rule="nonzero">
<path style="fill:none;stroke-width:0.106698;stroke-linecap:butt;stroke-linejoin:round;stroke:rgb(89.803922%,89.803922%,89.803922%);stroke-opacity:1;stroke-miterlimit:10;" d="M 12.703125 299.410156 L 278.039063 299.410156 "/>
<path style="fill:none;stroke-width:0.106698;stroke-linecap:butt;stroke-linejoin:round;stroke:rgb(89.803922%,89.803922%,89.803922%);stroke-opacity:1;stroke-miterlimit:10;" d="M 12.703125 234.300781 L 278.039063 234.300781 "/>
<path style="fill:none;stroke-width:0.106698;stroke-linecap:butt;stroke-linejoin:round;stroke:rgb(89.803922%,89.803922%,89.803922%);stroke-opacity:1;stroke-miterlimit:10;" d="M 12.703125 169.1875 L 278.039063 169.1875 "/>
<path style="fill:none;stroke-width:0.106698;stroke-linecap:butt;stroke-linejoin:round;stroke:rgb(89.803922%,89.803922%,89.803922%);stroke-opacity:1;stroke-miterlimit:10;" d="M 12.703125 104.078125 L 278.039063 104.078125 "/>
<path style="fill:none;stroke-width:0.106698;stroke-linecap:butt;stroke-linejoin:round;stroke:rgb(89.803922%,89.803922%,89.803922%);stroke-opacity:1;stroke-miterlimit:10;" d="M 12.703125 38.96875 L 278.039063 38.96875 "/>
<path style=" stroke:none;fill-rule:nonzero;fill:rgb(0%,0%,1.568627%);fill-opacity:1;" d="M 18.230469 331.964844 L 51.398438 331.964844 L 51.398438 152.261719 L 18.230469 152.261719 Z M 18.230469 331.964844 "/>
<path style=" stroke:none;fill-rule:nonzero;fill:rgb(20%,3.921569%,37.254902%);fill-opacity:1;" d="M 55.082031 331.964844 L 88.25 331.964844 L 88.25 148.355469 L 55.082031 148.355469 Z M 55.082031 331.964844 "/>
<path style=" stroke:none;fill-rule:nonzero;fill:rgb(47.058824%,10.980392%,42.745098%);fill-opacity:1;" d="M 91.933594 331.964844 L 125.101563 331.964844 L 125.101563 129.472656 L 91.933594 129.472656 Z M 91.933594 331.964844 "/>
<path style=" stroke:none;fill-rule:nonzero;fill:rgb(73.333333%,21.568627%,32.941176%);fill-opacity:1;" d="M 128.785156 331.964844 L 161.953125 331.964844 L 161.953125 25.296875 L 128.785156 25.296875 Z M 128.785156 331.964844 "/>
<path style=" stroke:none;fill-rule:nonzero;fill:rgb(92.941176%,41.176471%,14.509804%);fill-opacity:1;" d="M 165.636719 331.964844 L 198.804688 331.964844 L 198.804688 85.199219 L 165.636719 85.199219 Z M 165.636719 331.964844 "/>
<path style=" stroke:none;fill-rule:nonzero;fill:rgb(98.823529%,70.980392%,9.803922%);fill-opacity:1;" d="M 202.492188 331.964844 L 235.660156 331.964844 L 235.660156 173.746094 L 202.492188 173.746094 Z M 202.492188 331.964844 "/>
<path style=" stroke:none;fill-rule:nonzero;fill:rgb(98.823529%,100%,64.313725%);fill-opacity:1;" d="M 239.34375 331.964844 L 272.511719 331.964844 L 272.511719 127.519531 L 239.34375 127.519531 Z M 239.34375 331.964844 "/>
</g>
<g clip-path="url(#clip2)" clip-rule="nonzero">
<path style=" stroke:none;fill-rule:nonzero;fill:rgb(98.823529%,100%,64.313725%);fill-opacity:1;" d="M 433.371094 178.628906 L 438.949219 173.894531 L 441.738281 171.523438 L 444.527344 169.15625 L 447.320313 166.785156 L 450.109375 164.417969 L 452.898438 162.046875 L 458.476563 157.3125 L 461.269531 154.941406 L 464.058594 152.574219 L 466.847656 150.203125 L 472.425781 145.46875 L 475.21875 143.097656 L 478.007813 140.730469 L 480.796875 138.359375 L 486.375 133.625 L 489.164063 131.253906 L 491.957031 128.886719 L 494.746094 126.515625 L 500.324219 121.78125 L 503.113281 119.410156 L 505.90625 117.042969 L 508.695313 114.671875 L 514.273438 109.9375 L 511.84375 107.171875 L 509.320313 104.496094 L 506.703125 101.90625 L 504 99.410156 L 501.210938 97.007813 L 498.339844 94.707031 L 495.394531 92.503906 L 492.371094 90.40625 L 489.277344 88.414063 L 486.113281 86.53125 L 482.890625 84.757813 L 479.605469 83.097656 L 476.265625 81.550781 L 472.875 80.121094 L 469.4375 78.8125 L 465.957031 77.621094 L 462.433594 76.554688 L 458.878906 75.605469 L 455.292969 74.785156 L 451.679688 74.085938 L 448.042969 73.515625 L 444.390625 73.070313 L 440.722656 72.75 L 437.050781 72.558594 L 433.371094 72.496094 Z M 433.371094 178.628906 "/>
<path style=" stroke:none;fill-rule:nonzero;fill:rgb(98.823529%,70.980392%,9.803922%);fill-opacity:1;" d="M 433.371094 178.628906 L 440.683594 178.386719 L 444.34375 178.265625 L 448 178.144531 L 451.660156 178.023438 L 458.972656 177.78125 L 462.632813 177.660156 L 466.289063 177.539063 L 469.949219 177.417969 L 477.261719 177.175781 L 480.921875 177.054688 L 484.578125 176.933594 L 488.238281 176.8125 L 495.550781 176.570313 L 499.210938 176.449219 L 502.867188 176.328125 L 506.527344 176.207031 L 513.839844 175.964844 L 517.5 175.84375 L 521.15625 175.722656 L 524.816406 175.601563 L 528.472656 175.476563 L 532.128906 175.355469 L 535.789063 175.234375 L 539.445313 175.113281 L 539.253906 171.371094 L 538.933594 167.640625 L 538.480469 163.917969 L 537.894531 160.21875 L 537.179688 156.539063 L 536.335938 152.890625 L 535.363281 149.269531 L 534.261719 145.6875 L 533.035156 142.148438 L 531.6875 138.652344 L 530.214844 135.207031 L 528.621094 131.816406 L 526.910156 128.484375 L 525.082031 125.210938 L 523.136719 122.007813 L 521.082031 118.875 L 518.917969 115.816406 L 516.648438 112.835938 L 514.273438 109.9375 L 508.695313 114.671875 L 505.90625 117.042969 L 503.113281 119.410156 L 500.324219 121.78125 L 494.746094 126.515625 L 491.957031 128.886719 L 489.164063 131.253906 L 486.375 133.625 L 480.796875 138.359375 L 478.007813 140.730469 L 475.21875 143.097656 L 472.425781 145.46875 L 466.847656 150.203125 L 464.058594 152.574219 L 461.269531 154.941406 L 458.476563 157.3125 L 452.898438 162.046875 L 450.109375 164.417969 L 447.320313 166.785156 L 444.527344 169.15625 L 441.738281 171.523438 L 438.949219 173.894531 Z M 433.371094 178.628906 "/>
<path style=" stroke:none;fill-rule:nonzero;fill:rgb(92.941176%,41.176471%,14.509804%);fill-opacity:1;" d="M 433.371094 178.628906 L 435.304688 181.734375 L 443.054688 194.15625 L 444.988281 197.261719 L 454.675781 212.789063 L 456.609375 215.894531 L 464.359375 228.316406 L 466.292969 231.421875 L 474.042969 243.84375 L 475.976563 246.949219 L 481.789063 256.265625 L 483.726563 259.367188 L 485.660156 262.472656 L 489.535156 268.683594 L 492.640625 266.671875 L 495.675781 264.550781 L 498.632813 262.328125 L 501.511719 260 L 504.308594 257.574219 L 507.015625 255.054688 L 509.636719 252.4375 L 512.164063 249.734375 L 514.597656 246.945313 L 516.929688 244.070313 L 519.160156 241.117188 L 521.285156 238.085938 L 523.304688 234.984375 L 525.214844 231.816406 L 527.015625 228.582031 L 528.699219 225.285156 L 530.269531 221.933594 L 531.71875 218.527344 L 533.050781 215.074219 L 534.261719 211.574219 L 535.347656 208.039063 L 536.3125 204.464844 L 537.148438 200.859375 L 537.863281 197.226563 L 538.445313 193.570313 L 538.902344 189.898438 L 539.234375 186.210938 L 539.433594 182.515625 L 539.503906 178.816406 L 539.445313 175.113281 L 535.789063 175.234375 L 532.128906 175.355469 L 528.472656 175.476563 L 524.816406 175.601563 L 521.15625 175.722656 L 517.5 175.84375 L 513.839844 175.964844 L 506.527344 176.207031 L 502.867188 176.328125 L 499.210938 176.449219 L 495.550781 176.570313 L 488.238281 176.8125 L 484.578125 176.933594 L 480.921875 177.054688 L 477.261719 177.175781 L 469.949219 177.417969 L 466.289063 177.539063 L 462.632813 177.660156 L 458.972656 177.78125 L 451.660156 178.023438 L 448 178.144531 L 444.34375 178.265625 L 440.683594 178.386719 Z M 433.371094 178.628906 "/>
<path style=" stroke:none;fill-rule:nonzero;fill:rgb(73.333333%,21.568627%,32.941176%);fill-opacity:1;" d="M 433.371094 178.628906 L 430.894531 181.328125 L 428.421875 184.023438 L 423.46875 189.414063 L 420.996094 192.109375 L 418.519531 194.808594 L 416.046875 197.503906 L 413.570313 200.199219 L 411.097656 202.894531 L 408.621094 205.59375 L 406.148438 208.289063 L 403.671875 210.984375 L 401.199219 213.679688 L 398.722656 216.375 L 396.246094 219.074219 L 393.773438 221.769531 L 391.296875 224.464844 L 388.824219 227.160156 L 386.347656 229.859375 L 383.875 232.554688 L 381.398438 235.25 L 378.925781 237.945313 L 376.449219 240.644531 L 373.976563 243.339844 L 369.023438 248.730469 L 366.550781 251.425781 L 364.074219 254.125 L 361.601563 256.820313 L 364.316406 259.230469 L 367.117188 261.542969 L 369.992188 263.761719 L 372.941406 265.882813 L 375.960938 267.898438 L 379.046875 269.808594 L 382.199219 271.613281 L 385.410156 273.308594 L 388.675781 274.894531 L 391.996094 276.367188 L 395.363281 277.726563 L 398.777344 278.96875 L 402.230469 280.09375 L 405.71875 281.097656 L 409.242188 281.984375 L 412.789063 282.75 L 416.363281 283.394531 L 419.957031 283.914063 L 423.570313 284.3125 L 427.191406 284.585938 L 430.816406 284.734375 L 434.449219 284.757813 L 438.078125 284.660156 L 441.703125 284.4375 L 445.320313 284.089844 L 448.917969 283.617188 L 452.503906 283.027344 L 456.0625 282.308594 L 459.597656 281.472656 L 463.097656 280.515625 L 466.566406 279.4375 L 469.996094 278.242188 L 473.382813 276.933594 L 476.722656 275.507813 L 480.011719 273.964844 L 483.246094 272.316406 L 486.421875 270.554688 L 489.535156 268.683594 L 485.660156 262.472656 L 483.726563 259.367188 L 481.789063 256.265625 L 475.976563 246.949219 L 474.042969 243.84375 L 466.292969 231.421875 L 464.359375 228.316406 L 456.609375 215.894531 L 454.675781 212.789063 L 444.988281 197.261719 L 443.054688 194.15625 L 435.304688 181.734375 Z M 433.371094 178.628906 "/>
<path style=" stroke:none;fill-rule:nonzero;fill:rgb(47.058824%,10.980392%,42.745098%);fill-opacity:1;" d="M 433.371094 178.628906 L 429.710938 178.519531 L 426.054688 178.40625 L 422.394531 178.296875 L 418.738281 178.1875 L 415.078125 178.074219 L 411.421875 177.964844 L 407.761719 177.851563 L 404.105469 177.742188 L 400.445313 177.628906 L 396.789063 177.519531 L 393.128906 177.40625 L 385.816406 177.1875 L 382.15625 177.074219 L 378.5 176.964844 L 374.839844 176.851563 L 371.183594 176.742188 L 367.523438 176.628906 L 363.867188 176.519531 L 360.207031 176.40625 L 356.550781 176.296875 L 352.890625 176.183594 L 349.234375 176.074219 L 345.574219 175.964844 L 341.917969 175.851563 L 338.257813 175.742188 L 334.601563 175.628906 L 330.941406 175.519531 L 327.285156 175.40625 L 327.238281 179.050781 L 327.3125 182.695313 L 327.515625 186.335938 L 327.84375 189.964844 L 328.292969 193.582031 L 328.871094 197.179688 L 329.566406 200.757813 L 330.390625 204.308594 L 331.332031 207.828125 L 332.394531 211.316406 L 333.574219 214.761719 L 334.875 218.167969 L 336.292969 221.527344 L 337.820313 224.835938 L 339.464844 228.089844 L 341.21875 231.285156 L 343.078125 234.417969 L 345.046875 237.484375 L 347.121094 240.480469 L 349.296875 243.40625 L 351.570313 246.253906 L 353.941406 249.023438 L 356.402344 251.710938 L 358.957031 254.308594 L 361.601563 256.820313 L 364.074219 254.125 L 366.550781 251.425781 L 369.023438 248.730469 L 373.976563 243.339844 L 376.449219 240.644531 L 378.925781 237.945313 L 381.398438 235.25 L 383.875 232.554688 L 386.347656 229.859375 L 388.824219 227.160156 L 391.296875 224.464844 L 393.773438 221.769531 L 396.246094 219.074219 L 398.722656 216.375 L 401.199219 213.679688 L 403.671875 210.984375 L 406.148438 208.289063 L 408.621094 205.59375 L 411.097656 202.894531 L 413.570313 200.199219 L 416.046875 197.503906 L 418.519531 194.808594 L 420.996094 192.109375 L 423.46875 189.414063 L 428.421875 184.023438 L 430.894531 181.328125 Z M 433.371094 178.628906 "/>
<path style=" stroke:none;fill-rule:nonzero;fill:rgb(20%,3.921569%,37.254902%);fill-opacity:1;" d="M 433.371094 178.628906 L 430.84375 175.980469 L 428.316406 173.335938 L 425.789063 170.6875 L 423.265625 168.039063 L 415.683594 160.09375 L 413.160156 157.445313 L 410.632813 154.800781 L 403.050781 146.855469 L 400.527344 144.207031 L 395.472656 138.910156 L 392.945313 136.265625 L 390.421875 133.617188 L 382.839844 125.671875 L 380.316406 123.023438 L 377.789063 120.378906 L 372.734375 115.082031 L 370.210938 112.433594 L 362.628906 104.488281 L 360.101563 101.84375 L 357.546875 104.367188 L 355.078125 106.972656 L 352.695313 109.664063 L 350.410156 112.433594 L 348.214844 115.28125 L 346.121094 118.199219 L 344.125 121.183594 L 342.234375 124.238281 L 340.445313 127.351563 L 338.761719 130.527344 L 337.1875 133.757813 L 335.726563 137.035156 L 334.375 140.363281 L 333.136719 143.738281 L 332.011719 147.148438 L 331.003906 150.597656 L 330.113281 154.078125 L 329.34375 157.585938 L 328.691406 161.117188 L 328.15625 164.671875 L 327.746094 168.238281 L 327.453125 171.820313 L 327.285156 175.40625 L 330.941406 175.519531 L 334.601563 175.628906 L 338.257813 175.742188 L 341.917969 175.851563 L 345.574219 175.964844 L 349.234375 176.074219 L 352.890625 176.183594 L 356.550781 176.296875 L 360.207031 176.40625 L 363.867188 176.519531 L 367.523438 176.628906 L 371.183594 176.742188 L 374.839844 176.851563 L 378.5 176.964844 L 382.15625 177.074219 L 385.816406 177.1875 L 393.128906 177.40625 L 396.789063 177.519531 L 400.445313 177.628906 L 404.105469 177.742188 L 407.761719 177.851563 L 411.421875 177.964844 L 415.078125 178.074219 L 418.738281 178.1875 L 422.394531 178.296875 L 426.054688 178.40625 L 429.710938 178.519531 Z M 433.371094 178.628906 "/>
<path style=" stroke:none;fill-rule:nonzero;fill:rgb(0%,0%,1.568627%);fill-opacity:1;" d="M 433.371094 178.628906 L 433.371094 72.496094 L 429.695313 72.558594 L 426.023438 72.75 L 422.363281 73.070313 L 418.714844 73.511719 L 415.082031 74.082031 L 411.472656 74.78125 L 407.890625 75.601563 L 404.339844 76.542969 L 400.820313 77.609375 L 397.34375 78.796875 L 393.90625 80.105469 L 390.519531 81.53125 L 387.183594 83.074219 L 383.902344 84.730469 L 380.679688 86.5 L 377.523438 88.378906 L 374.429688 90.367188 L 371.410156 92.460938 L 368.460938 94.65625 L 365.59375 96.957031 L 362.804688 99.351563 L 360.101563 101.84375 L 362.628906 104.488281 L 370.210938 112.433594 L 372.734375 115.082031 L 377.789063 120.378906 L 380.316406 123.023438 L 382.839844 125.671875 L 390.421875 133.617188 L 392.945313 136.265625 L 395.472656 138.910156 L 400.527344 144.207031 L 403.050781 146.855469 L 410.632813 154.800781 L 413.160156 157.445313 L 415.683594 160.09375 L 423.265625 168.039063 L 425.789063 170.6875 L 428.316406 173.335938 L 430.84375 175.980469 Z M 433.371094 178.628906 "/>
</g>
</g>
</svg>
